<?xml version="1.0" encoding="utf-8"?>
<!-- Generator: Adobe Illustrator 22.0.0, SVG Export Plug-In . SVG Version: 6.00 Build 0)  -->
<svg version="1.1" id="Camioneta" xmlns="http://www.w3.org/2000/svg" xmlns:xlink="http://www.w3.org/1999/xlink" x="0px" y="0px"
	 viewBox="0 0 612 399" style="enable-background:new 0 0 612 399;" xml:space="preserve">
<style type="text/css">
	.st0{fill:#1A1A1A;}
	.st1{fill:#333333;}
	.st2{fill:#808080;}
	.st3{fill:#4D4D4D;}
	.st4{fill:#999999;}
	.st5{fill:none;stroke:#333333;stroke-width:5;stroke-linecap:round;stroke-linejoin:round;stroke-miterlimit:10;}
</style>
<g id="Capa_13">
	<path d="M533.1,103.5c0,0,5.9,8.5,8.5,15.1s4.6,22.3,4.6,22.3c11.1,12.2,14.5,24.1,15.7,29.9c2.5,12,0.7,22.8-1,33
		c-1.1,6.6-2.5,11.9-3.6,15.7c-0.4,0.8-1,2-1.8,3.5c-3.4,6.7-3.8,7.5-4.3,8.8c-1.9,4.9-0.2,5.8-1.4,9.4c-1.9,5.6-7.9,7.6-22,14.4
		c-9.2,4.4-8.3,2.8-20.9,8.3c-13.3,5.8-17.1,8.7-28.1,12.1c-5.1,1.6-8.9,2.3-12.4,3.1c-29.3,6.4-44,9.6-46.5,10
		c-34,5.6-133.9-50.9-129.5-96.5C294.7,149.1,393.5,115.7,533.1,103.5z"/>
</g>
<g id="llanta_3">
	<path d="M481.3,298.3c0.1,2.8,0.7,38.4-27.6,60.9c-16.9,13.4-35.2,15-40.9,15.3c-5.2,0.2-28.9,1.4-47.8-15.3
		c-24.4-21.5-21.2-55.3-20.6-60.9c3.1-32.1,27.7-76.1,68.5-76.2C452.2,222.1,480.1,263.1,481.3,298.3z"/>
	<path class="st0" d="M482.8,292.8c0,36.9-26.4,77.2-57.9,79.9c-13.9,1.2-24.8-5.2-28.4-7.4c-32.6-19.8-29.8-68-29.5-72.4
		c2.5-33.9,25.4-79.9,57.9-79.9C456.9,212.9,482.8,248.7,482.8,292.8z"/>
</g>
<g id="llanta_2">
	<path class="st0" d="M187.2,261.6c0.1,2.8,0.7,38.4-27.6,60.9c-16.9,13.4-35.2,15-40.9,15.3c-5.2,0.2-28.9,1.4-47.8-15.3
		c-24.4-21.5-21.2-55.3-20.6-60.9c3.1-32.1,27.7-76.1,68.5-76.2C158.2,185.4,186.1,226.5,187.2,261.6z"/>
</g>
<g id="llanta_1">
	<path class="st0" d="M559.5,258.7c-0.6,5.4-1.4,13.7-6.1,19.1c-9.5,10.8-31.2,11.7-39.3,2.5c-4.4-5-4.9-13.2-5.7-27.8
		c0-0.5-0.2-4-0.5-9c-0.1-2.1-0.3-4.8-0.5-8.5c-0.6-9.2-0.7-8.5-0.6-9.6c0.1-3.8,0.3-17.6,9.7-24.7c6.1-4.6,14.9-5.4,21.7-3
		c15.5,5.5,19.4,26.6,20.3,31.4c1.1,5.9,1.4,14,1.4,16.7C559.8,251,560,254.5,559.5,258.7z"/>
</g>
<g id="lineas">
	<path d="M256.7,57.3c6.5-7.4,12.2-13.5,16.8-18.2c3.8-3.8,6.2-6.1,10.1-7.1c3.5-0.9,7-0.2,13.9,1.4c6.2,1.4,10.8,3,12.1,3.4
		c1.6,0.6,4.9,1.9,11.5,4.4c1.7,0.7,3.1,1.2,4,1.6c1.2-1.5,2.3-3.1,3.5-4.6c-7.7-2.5-13.6-4.5-17.3-5.8c0,0-8.3-2.8-21.6-5.8
		c-2.1-0.5-4.1-0.9-6.6-0.5c-4.5,0.7-7.9,3.4-11.3,7.1C264.2,41.5,259.3,51.3,256.7,57.3z"/>
	<path d="M431,46.3c1.8-3.6,3.7-6.4,5.1-8.4c3.7-5.1,5.5-5.9,6.4-6.3c2.4-0.8,4.5-0.4,6.9,0.3c6.5,1.7,11.1,3.7,16.4,6
		c7.9,3.4,7.3,2.8,12.9,5.4c6.6,3,9.9,4.5,12.5,6.5c2.9,2.2,7.4,6.5,10.8,14.5c-0.2-2.1-0.7-5.4-2.3-9c-0.7-1.6-2-4.3-4.5-6.9
		c-2.8-2.9-5.6-4.7-8.6-6.4c0,0-20.7-8.8-20.7-8.8c-4.9-2.1-9.8-4.2-14.6-6.3c-1.7-0.6-6.3-1.9-11.1,0.1c-3.9,1.7-6,4.7-7.9,7.6
		c-2.3,3.4-3.4,6.7-4,8.8L431,46.3z"/>
</g>
<g id="carroceria">
	<path class="st1" d="M119.5,297.5c-1.5,5.4-4,7.2-5.6,7.9c-3.3,1.4-6.2-0.2-18.1-5.6c-13.7-6.2-14.4-6.1-20.4-9.4
		c-3.1-1.7-7.5-4.2-12.9-8c-6.2-4.4-9.2-6.6-11.7-9.5c-4.2-5-7.9-12.9-9.3-27.9c-0.2-2.5-0.5-5.4-0.6-8.8
		c-0.2-4.8-0.5-17.3,1.7-32.7c0.8-5.3,1.8-10.9,2-11.5c0.9-5,1.4-6.7,2.2-11.2c1.2-6.7,1.3-8.8,1.8-11.4c2-10.7,9.5-18.2,14.5-23.2
		c5-5,10.3-8.8,17.1-12.7c24.3-13.7,48.3-18.2,66.9-20.3c22.9-2.6,22.9-2.6,22.9-2.6c6.8-9.3,16.9-21.6,31.1-33.8
		c6.3-5.4,20.6-17.7,39.1-26.5c10.9-5.2,26.4-9.2,74.7-12.9c39.3-3,68.4-0.6,93.5,1.5c64.4,5.5,88.2,17.4,98.6,23.8
		c4.7,2.9,12,7.5,18,16.2c2.9,4.2,5.2,9.9,9.8,21.5c3.4,8.5,4.1,10.9,7.2,18.8c3.4,8.4,6.4,15.1,8.4,19.2
		c7.9,13.2,10.6,25.1,11.7,32.3c2.1,13.8,0.3,25.1-1,33c-1.1,6.6-2.5,11.9-3.6,15.7c-0.6-5.3-1.3-13.1-1.6-22.6
		c-0.4-10.1-0.2-15.1-1.6-15.4c-2.7-0.6-8.4,14.7-9.5,17.7c-3.1,8.4-6.3,19.1-8.2,32.1c-0.7,12.3-3.4,21.2-8.5,24.3
		c-11.1,6.6-46.5,19.7-46.5,19.7c0.1-10.9-2.3-18.8-4.6-23.9c-3.3-7.3-5.9-8.6-8.1-15.9c-0.6-1.9-0.9-3.4-1-4.8
		c-0.4-3.4-0.5-5.6-0.7-16c0-1.8,0-2.7,0-2.7c-0.1-2.5-0.8-15.9-8.2-19.6c-8.7-4.3-21.6,7.4-22.9,8.6c-1.7,1.5-2.9,2.9-3.4,3.5
		c-10.3,12.3-14,30.2-14,30.2c-1.8,8.7-13.5,63.1-37,74.2c-1.2,0.6-3.4,1.3-3.7,1.4c-12.3,4.6-22.8,5.9-29.9,6.3
		c-2.1,1.2-5.1,2.7-9,4c-3.3,1.1-9.6,2.8-20.3,2.7c-6.3-0.1-9.9-0.8-21.4-2.7c-5.5-0.9-14-2.3-24.6-4
		C221.5,310.1,170.5,303.8,119.5,297.5z"/>
</g>
<g id="ventana">
	<path class="st2" d="M175,111.8c3.9-3.1,49.8-58.6,75.2-60.7c5.6-0.5,26.4-1.8,68.2-2.6c0,0,0,0,0,0c39.6-1.2,47.9-0.6,64.5-0.2
		c34.3,0.8,51.5,1.2,56.2,11c1.1,2.3,1.9,5.9-4.3,24c-5.6,16.3-11.6,29.2-16.1,38l0,0c-40-3.9-82.4-6.8-126.9-8.4
		C251,111.3,212,111.1,175,111.8z"/>
	<path class="st2" d="M522,128.4L499.7,65c0,0-24.3-12.5-34.5-3c-1.7,1.6-2.6,3.4-3.6,6.1c-5.1,13.9-3.9,27.2-3,35.8
		c1.1,10.3,3,23.1,6,37.7c11.7-2.6,23.5-5.3,35.3-8C507.4,131.8,514.7,130.1,522,128.4z"/>
	<path class="st2" d="M505.9,69.4c5.8,13.6,9.9,24.8,12.5,32.5c3,8.8,8,24.3,8,24.4l0,0h6.7c0.2-1.5,0.5-3.8,0.5-6.7
		c0.2-17-8.5-29.5-11.2-33.4c-3.5-4.9-7.3-8.7-8.8-10.2C510.6,73.1,507.9,70.9,505.9,69.4z"/>
</g>
<g id="centro">
	<path class="st0" d="M42.5,204.4c8.8,3.2,21.4,7.4,37,11.1c24.5,5.8,43.6,7.3,67.3,8.8c26.6,1.7,59.4,3.3,97.3,4.3
		c34.5,0.3,69.1,0.6,103.6,0.8c22.1-1.6,33.6-9.2,39.9-16.1c9.2-9.9,7.5-17.9,20.8-41.8c9.7-17.5,14.7-26.2,23.5-27.5
		c14.4-2.1,27.9,17.1,29,18.8c4.7,6.8,6.6,13.5,7.5,17.8c0.1,0.4,0.4,2.2,2,3.5c1.6,1.2,3.6,1.1,4.8,1c15.4-1.6,30.7-8.7,30.8-8.8
		c5.1-2.4,12.8-5.9,22.6-10c1.8,7.3,4.6,22.3,0.2,40.5c-4.2,17.6-13.1,29.4-18,35.1c-11.3,3.1-22.5,6.3-33.8,9.4
		c-2.3-3.2-4-6.1-5.4-8.3c-3.7-6.3-4.4-8.8-4.7-11c-0.2-2-0.1-3.4,0-4.8c0.6-6.8,0.2-14.1-0.4-18.3c-0.6-4-2.2-14.3-8.8-16.9
		c-3.8-1.5-7.6,0.1-11.2,1.7c-14,6.1-20.5,20.7-22.8,25.8c-3.5,7.9-5.1,15.2-5.1,15.2c-0.3,1.4-0.7,3.4-1.5,7.1
		c-0.8,3.8-1.6,6.8-2.1,8.8c-23.2,5.4-42.3,7.3-55.3,8c-15.2,0.8-24.4,0.2-91-0.3c-1.9,0-3.9,0-5.8,0c-13.9-0.3-38.5-2.1-184.7-13.5
		c0,0-36.1-2.8-37.2-13.9c-0.1-0.7,0-2.6,0-5.7c0.1-5.5,0.5-9.5,0.6-10.6C41.6,211.6,41.9,208.2,42.5,204.4z"/>
</g>
<g id="baja">
	<path class="st3" d="M75.4,290.4c-2.3-20-4.2-34.9-6.2-44.5c-0.7-3.3-2.2-11.2,1.9-16.6c0.6-0.8,1.4-1.5,2.5-2.1
		c5.2-3.1,187.9,10.1,187.9,10.1s21.4-1.3,27.5,6.6c6.1,7.9,6.1,17.9,6.1,17.9l19.2,31.2c7.4,9.4,14.8,18.9,22.2,28.3
		c-6,1.5-11.1,1.9-14.7,2c-4.7,0.1-8.4-0.3-12.3-0.7c-6.8-0.8-11.8-1.8-12.4-2c-7.3-1.6-57-8.2-177.7-22.9c-0.6,2.7-1.9,5.9-4.8,7.5
		c-4.1,2.2-9-0.4-22-6.6C88.5,296.5,82.6,293.7,75.4,290.4z"/>
</g>
<g id="placa">
	<polygon class="st4" points="109,216.2 109,245.1 227.4,253.8 227.4,222.1 	"/>
</g>
<g id="alta">
	<path class="st3" d="M63,146.3c0,0-14.1,12.5-14.6,24.8c-0.5,10.4,5.2,17.8,7,20c6.3,7.7,14.3,9.9,16.9,10.6
		c4.1,0.6,9.8,1.3,16.6,2c10.6,1.2,18.4,1.8,20.2,2c63.1,5,126.5,6.5,189.7,10.5c0,0,42.1,2.7,63.7-16.1c2.5-2.2,4.5-4.9,4.5-4.9
		c0.4-0.6,9.1-12.9,5.2-25.3c0,0-7.4-13.1-7.4-13.1l0,0L63,146.3z"/>
</g>
<g id="luces">
	<path class="st2" d="M99.3,176.9l-3.9-29.5L63,146.3c-1.9,1.8-3.5,3.4-4.6,4.7c-1.4,1.6-2.4,2.8-2.6,3.2c0,0-1.3,1.6-2.3,3.2
		c-4.1,6.3-5,12-5,12c-1.4,8.8,2.9,15.9,4.3,18.1c1,1.6,3.1,4.7,6.6,7.6c5,4.2,10.1,5.6,13.2,6.5c0,0,2.9,0.8,16.2,2l0,0L99.3,176.9
		z"/>
	<path class="st2" d="M272.9,185.5l19.7-31.2l72.1,2.5c2.1,2.2,6.1,6.8,7.7,13.9c1,4.2,0.7,7.5,0.5,9.8c-0.3,3.2-1.1,12.4-7.8,19.4
		c-1.9,1.9-3.9,3.4-7.9,5.5c-5,2.6-18.8,9.1-42.2,10.7c-6.2,0.4-11.1,0.4-15.5,0.3c-9.2-0.1-17-0.7-22.5-1.3
		C275.5,205.1,274.2,195.3,272.9,185.5z"/>
	<path class="st5" d="M159.5,161.6c0.9,4.6,2.3,10.7,4,17.8c2.8,11.5,3.9,14,6.5,15.9c4.4,3.2,11.3,3.1,16,0.4
		c4.4-2.6,6.3-8.4,9.9-19.9c1.7-5.5,2.9-10.2,3.6-13.5"/>
	<path class="st5" d="M192.9,179.9c-9.6-0.3-19.2-0.5-28.8-0.8"/>
</g>
</svg>
